<?xml version="1.0" encoding="UTF-8" standalone="no"?>
<svg
  width="48"
  height="48"
  viewBox="0 0 12.7 12.7"
  version="1.1"
  xmlns="http://www.w3.org/2000/svg"
  xmlns:xlink="http://www.w3.org/1999/xlink"
>
  <defs>
    <linearGradient id="linearGradient7">
      <stop
        style="stop-color:#10b981;stop-opacity:1;"
        offset="0.0981132"
        id="stop7" />
      <stop
        style="stop-color:#056996;stop-opacity:1;"
        offset="0.90377361"
        id="stop8" />
    </linearGradient>
    <linearGradient
      xlink:href="#linearGradient7"
      id="linearGradient8"
      x1="0"
      y1="0"
      x2="12.699999"
      y2="12.699999"
      gradientUnits="userSpaceOnUse"
      spreadMethod="pad" />
  </defs>
  <g>
    <rect
      style="display:inline;opacity:1;fill:url(#linearGradient8);fill-opacity:1;fill-rule:nonzero;stroke:none;stroke-width:0.529167;stroke-linecap:round;stroke-dasharray:none;stroke-opacity:1"
      width="12.699999"
      height="12.699999"
      x="0"
      y="0"
      ry="1.0583333" />
    <path
      style="display:inline;fill:none;stroke:#ffffff;stroke-width:1.05833333;stroke-linecap:round;stroke-dasharray:none;stroke-opacity:1"
      d="m 5.0270831,8.2020829 c 0,0 -0.2645834,0.5291666 -1.3229166,0.5291666 -0.79375,0 -1.3229166,-0.7937499 -1.3229166,-1.5874999 0,-1.0583333 0.7937499,-1.5874999 1.5874999,-1.5874999 1.3229166,0 2.3812499,1.5874999 2.3812499,1.5874999 0,0 1.0583334,1.5874998 2.3812498,1.5874999 0.7937499,0 1.5874985,-0.5291666 1.5874995,-1.5874999 0,-0.7937499 -0.5291662,-1.5874999 -1.3229161,-1.5874999 -1.0583333,0 -1.3229166,0.5291666 -1.3229166,0.5291666"
    />
    <path
      style="fill:none;stroke:#ffffff;stroke-width:0.52916667;stroke-linecap:round;stroke-dasharray:none;stroke-opacity:1"
      d="m 6.8791663,3.4395832 c 0,0 -0.2645833,-0.5291667 -0.79375,-0.5291667 -0.5291666,0 -1.0583333,0.5291667 -1.0583332,1.0583333 1e-7,0.5291668 0.5291667,1.0583332 1.0583333,1.0583333 0.79375,1e-7 1.0583333,-1.0583333 2.1166665,-1.0583333"
    />
  </g>
</svg>
