<?xml version="1.0" encoding="UTF-8" standalone="no"?>

<svg
  width="40"
  height="40"
  viewBox="0 0 10.583333 10.583333"
  version="1.1"
  xml:space="preserve"
  xmlns:xlink="http://www.w3.org/1999/xlink"
  xmlns="http://www.w3.org/2000/svg">
  <defs>
    <linearGradient
      id="linearGradient7">
      <stop
        style="stop-color:#10b981;stop-opacity:1;"
        offset="0"
        id="stop7" />
      <stop
        style="stop-color:#056996;stop-opacity:1;"
        offset="1"
        id="stop8" />
    </linearGradient>
    <linearGradient
      xlink:href="#linearGradient7"
      id="linearGradient8"
      x1="3.7041664"
      y1="3.7041664"
      x2="10.054166"
      y2="9.260416"
      gradientUnits="userSpaceOnUse"
      gradientTransform="translate(-1.0588509,-0.79426741)" />
    </defs>
    <g>
    <path
      style="color:#000000;fill:url(#linearGradient8);fill-opacity:1;stroke-linecap:round;-inkscape-stroke:none"
      d="m 5.0270825,1.8520827 c -0.352777,0 -0.6762109,0.1682316 -0.9162231,0.4082438 -0.2400123,0.2400123 -0.4082438,0.5613791 -0.4082438,0.9141561 10e-8,0.352777 0.1682315,0.6741438 0.4082438,0.9141561 0.2400122,0.2400122 0.5634462,0.4082438 0.9162231,0.4082438 0.5144666,1e-7 0.8444325,-0.3377119 1.1348145,-0.5958293 C 6.452279,3.6429359 6.7012276,3.4380324 7.1421989,3.4380324 A 0.26458335,0.26458335 0 0 0 7.4078158,3.1744826 0.26458335,0.26458335 0 0 0 7.1421989,2.9109328 c -0.6173599,0 -1.0267724,0.324781 -1.3317017,0.5958293 C 5.505568,3.7778104 5.3063644,3.9671992 5.0270825,3.9671991 4.850694,3.9671991 4.6428921,3.8723971 4.4860303,3.7155348 4.3291683,3.558673 4.2322991,3.3508712 4.232299,3.1744826 c 0,-0.1763884 0.096869,-0.3841903 0.2537313,-0.5410522 0.1568618,-0.156862 0.3646637,-0.2516643 0.5410522,-0.2516643 0.3527771,0 0.5565552,0.3824055 0.5565552,0.3824056 A 0.26458335,0.26458335 0 0 0 5.9391716,2.8814772 0.26458335,0.26458335 0 0 0 6.0564771,2.5259434 c 0,0 -0.3238404,-0.6738607 -1.0293946,-0.6738607 z m -2.1171834,2.38125 c -0.5144666,0 -1.0365628,0.1696694 -1.4433228,0.5312337 -0.4067599,0.3615645 -0.67386061,0.9244928 -0.67386061,1.5859497 0,0.5144666 0.1649772,1.0154607 0.47645671,1.4159343 0.3114794,0.4004736 0.8039142,0.6991821 1.3771769,0.6991821 0.6173598,0 1.0625853,-0.1609645 1.3513387,-0.3534668 C 4.2864415,7.9196634 4.4410718,7.6450108 4.4410718,7.6450108 A 0.52916664,0.52916664 0 0 0 4.2049105,6.9344598 0.52916664,0.52916664 0 0 0 3.4959098,7.1706211 c 0,0 0.022337,-0.00955 -0.085783,0.062528 -0.1081207,0.072081 -0.3228064,0.1736328 -0.7637777,0.1736328 -0.2204857,0 -0.391579,-0.096101 -0.5431193,-0.2909383 -0.151541,-0.1948375 -0.252181,-0.4860461 -0.252181,-0.765328 0,-0.3968742 0.1302924,-0.6297662 0.3188436,-0.7973673 C 2.3584439,5.3855477 2.6306173,5.291666 2.9098991,5.291666 c 0.4497908,0 0.9478284,0.3011512 1.3280843,0.6521566 0.3802559,0.3510056 0.6133993,0.6991821 0.6133993,0.6991821 0,0 0.2955083,0.4460918 0.7751464,0.8888347 0.4796382,0.4427428 1.1717133,0.9337931 2.0448365,0.9337931 0.5144665,0 1.0370799,-0.168119 1.4438395,-0.5296834 0.40676,-0.3615646 0.673344,-0.9239762 0.673344,-1.585433 0,-0.5144664 -0.16291,-1.0175277 -0.47439,-1.4180013 -0.311479,-0.4004736 -0.8033973,-0.699182 -1.3766599,-0.6991821 -0.6173599,0 -1.063102,0.1609645 -1.3518555,0.3534668 C 6.2968903,4.7793018 6.1401929,5.0555047 6.1401929,5.0555047 a 0.52916664,0.52916664 0 0 0 0.236678,0.7090007 0.52916664,0.52916664 0 0 0 0.710551,-0.2366781 c 0,0 -0.023888,0.01162 0.084233,-0.060461 0.1081207,-0.072081 0.3248733,-0.1756999 0.7658447,-0.1756999 0.2204856,0 0.3889951,0.096101 0.5405355,0.2909383 0.1515402,0.1948377 0.252181,0.48863 0.252181,0.7679118 -4e-7,0.3968746 -0.1297757,0.6271824 -0.3183269,0.7947836 C 8.2233381,7.3129009 7.9506473,7.4067824 7.6713656,7.4067824 7.2215749,7.4067823 6.7256042,7.1056314 6.3453483,6.7546258 5.9650923,6.4036204 5.7319491,6.0554437 5.7319491,6.0554437 c 0,0 -0.2975755,-0.4460918 -0.7772136,-0.8888346 C 4.4750974,4.7238662 3.7830223,4.2333327 2.9098991,4.2333327 Z" />
  </g>
</svg>