<!-- Created with Inkscape (http://www.inkscape.org/) -->

<svg width="40" height="40" viewBox="0 0 10.583333 10.583333" version="1.1" xml:space="preserve"
  xmlns:xlink="http://www.w3.org/1999/xlink"
  xmlns="http://www.w3.org/2000/svg">
  <defs>
    <linearGradient id="linearGradient7">
      <stop style="stop-color:#10b981;stop-opacity:1;" offset="0" />
      <stop style="stop-color:#056996;stop-opacity:1;" offset="1" />
    </linearGradient>
    <linearGradient xlink:href="#linearGradient7" id="linearGradient8" x1="3.7041664" y1="3.7041664" x2="10.054166" y2="9.260416" gradientUnits="userSpaceOnUse" gradientTransform="translate(-1.0588509,-0.79426741)" />
  </defs>
  <g>
    <path style="color:#000000;fill:url(#linearGradient8);fill-opacity:1;stroke-linecap:round;-inkscape-stroke:none" d="M 5.2916665 1.0583333 L 4.8250283 2.0034952 L 3.7816812 2.1554239 L 4.5366738 2.8912963 L 4.3583902 3.9299926 L 5.2916665 3.4395832 L 6.2249428 3.9299926 L 6.0466592 2.8912963 L 6.8016518 2.1554239 L 5.7583047 2.0034952 L 5.2916665 1.0583333 z M 2.9098998 4.2333332 C 2.3954342 4.2333332 1.8733363 4.4030034 1.4665771 4.7645669 C 1.059818 5.1261306 0.79271645 5.6890609 0.79271645 6.3505166 C 0.79271645 6.864982 0.95769429 7.365978 1.2691731 7.7664508 C 1.5806519 8.1669236 2.0730885 8.4656329 2.64635 8.4656329 C 3.2637086 8.4656329 3.7089359 8.304668 3.9976887 8.1121661 C 4.2864416 7.9196642 4.4410725 7.6450112 4.4410725 7.6450112 A 0.52916664 0.52916664 0 0 0 4.2049112 6.9344602 A 0.52916664 0.52916664 0 0 0 3.4959105 7.1706215 C 3.4959105 7.1706215 3.5182475 7.1610722 3.4101277 7.23315 C 3.3020072 7.3052308 3.0873205 7.4067828 2.64635 7.4067828 C 2.4258647 7.4067828 2.2547708 7.3106814 2.1032307 7.1158445 C 1.9516901 6.9210074 1.8510497 6.6297979 1.8510497 6.3505166 C 1.8510497 5.9536432 1.9813425 5.7207501 2.1698933 5.5531492 C 2.3584444 5.385549 2.6306186 5.2916665 2.9098998 5.2916665 C 3.3596898 5.2916665 3.857729 5.5928183 4.2379841 5.9438231 C 4.6182392 6.2948279 4.8513833 6.6430052 4.8513833 6.6430052 C 4.8513833 6.6430052 5.1468927 7.0890977 5.6265298 7.5318398 C 6.106167 7.9745816 6.7982447 8.4656329 7.6713661 8.4656329 C 8.1858316 8.4656329 8.7084468 8.2975131 9.1152056 7.9359495 C 9.5219648 7.5743855 9.7885495 7.011972 9.7885495 6.3505166 C 9.7885495 5.8360512 9.6256393 5.3329881 9.3141599 4.9325153 C 9.0026815 4.5320425 8.5107613 4.2333333 7.9374997 4.2333332 C 7.3201412 4.2333332 6.8743972 4.3942981 6.5856443 4.5868 C 6.2968915 4.7793019 6.1401935 5.0555052 6.1401935 5.0555052 A 0.52916664 0.52916664 0 0 0 6.3768715 5.7645058 A 0.52916664 0.52916664 0 0 0 7.0874225 5.5278278 C 7.0874225 5.5278278 7.0635344 5.5394472 7.171655 5.4673664 C 7.2797755 5.3952854 7.4965293 5.2916665 7.9374997 5.2916665 C 8.1579849 5.2916665 8.3264952 5.3877679 8.4780352 5.5826048 C 8.6295752 5.7774421 8.7302162 6.0712352 8.7302162 6.3505166 C 8.7302158 6.7473904 8.6004402 6.9776991 8.4118894 7.1453001 C 8.2233387 7.3129005 7.9506474 7.4067828 7.6713661 7.4067828 C 7.2215764 7.4067827 6.725604 7.1056311 6.3453489 6.7546263 C 5.9650937 6.4036215 5.7319497 6.0554441 5.7319497 6.0554441 C 5.7319497 6.0554441 5.4343733 5.6093515 4.9547362 5.1666095 C 4.4750991 4.7238676 3.7830212 4.2333332 2.9098998 4.2333332 z " />
  </g>
</svg>
